<?xml version="1.0" encoding="UTF-8" standalone="no" ?>
<!DOCTYPE svg PUBLIC "-//W3C//DTD SVG 1.1//EN" "http://www.w3.org/Graphics/SVG/1.1/DTD/svg11.dtd">
<svg xmlns="http://www.w3.org/2000/svg" xmlns:xlink="http://www.w3.org/1999/xlink" version="1.1" width="1080" height="1080" viewBox="0 0 1080 1080" xml:space="preserve">
<desc>Created with Fabric.js 5.2.4</desc>
<defs>
</defs>
<g transform="matrix(1 0 0 1 540 540)" id="1db0eac6-5330-4d3d-90cb-e4b70b35b951"  >
</g>
<g transform="matrix(1 0 0 1 540 540)" id="52dc0f3e-f6a9-4ade-9d2d-6c76bc5a7550"  >
<rect style="stroke: none; stroke-width: 1; stroke-dasharray: none; stroke-linecap: butt; stroke-dashoffset: 0; stroke-linejoin: miter; stroke-miterlimit: 4; fill: rgb(255,255,255); fill-rule: nonzero; opacity: 1; visibility: hidden;" vector-effect="non-scaling-stroke"  x="-540" y="-540" rx="0" ry="0" width="1080" height="1080" />
</g>
<g transform="matrix(1 0 0 1 50 50)"  >
<rect style="stroke: none; stroke-width: 1; stroke-dasharray: none; stroke-linecap: butt; stroke-dashoffset: 0; stroke-linejoin: miter; stroke-miterlimit: 4; fill: rgb(255,255,255); fill-opacity: 0; fill-rule: nonzero; opacity: 1;" vector-effect="non-scaling-stroke"  x="-50" y="-50" rx="0" ry="0" width="100" height="100" />
</g>
<g transform="matrix(1 0 0 1 540 540)"  >
<rect style="stroke: none; stroke-width: 1; stroke-dasharray: none; stroke-linecap: butt; stroke-dashoffset: 0; stroke-linejoin: miter; stroke-miterlimit: 4; fill: rgb(255,255,255); fill-rule: nonzero; opacity: 1; visibility: hidden;" vector-effect="non-scaling-stroke"  x="-540" y="-540" rx="0" ry="0" width="1080" height="1080" />
</g>
<g transform="matrix(1 0 0 1 550.95 530.2)" clip-path="url(#CLIPPATH_5)"  >
<clipPath id="CLIPPATH_5" >
	<rect transform="matrix(0.97 0.26 -0.26 0.97 -6.46 9.99)" id="clip0_75_178" x="-112.12" y="-102.585" rx="0" ry="0" width="224.24" height="205.17" />
</clipPath>
<path style="stroke: none; stroke-width: 1; stroke-dasharray: none; stroke-linecap: butt; stroke-dashoffset: 0; stroke-linejoin: miter; stroke-miterlimit: 4; fill: rgb(255,255,255); fill-rule: nonzero; opacity: 0.14;" vector-effect="non-scaling-stroke"  transform=" translate(-130.01, -127.36)" d="M 103.343 147.899 C 102.038 147.549 100.998 146.901 100.346 145.988 C 99.1801 144.332 99.5402 142.003 101.342 139.612 L 120.854 113.762 C 123.516 110.232 128.869 107.29 133.819 106.64 C 136.638 106.261 139.005 106.685 140.488 107.847 L 158.81 122.087 C 160.055 123.054 160.558 124.427 160.284 126.041 C 159.591 129.809 154.693 134.006 148.858 135.79 L 111.03 147.375 C 108.066 148.294 105.362 148.439 103.343 147.899 Z M 138.113 107.553 C 136.931 107.236 135.498 107.168 133.905 107.401 C 129.147 108.024 124.012 110.839 121.471 114.218 L 101.959 140.068 C 100.359 142.196 99.9995 144.129 100.996 145.53 C 102.427 147.574 106.265 148.023 110.776 146.648 L 148.587 135.032 C 154.912 133.089 158.92 128.865 159.483 125.879 C 159.733 124.549 159.337 123.468 158.305 122.69 L 139.983 108.449 C 139.483 108.052 138.851 107.751 138.113 107.553 Z" stroke-linecap="round" />
</g>
<g transform="matrix(1 0 0 1 551.12 531.26)" clip-path="url(#CLIPPATH_6)"  >
<clipPath id="CLIPPATH_6" >
	<rect transform="matrix(0.97 0.26 -0.26 0.97 -6.81 7.89)" id="clip0_75_178" x="-112.12" y="-102.585" rx="0" ry="0" width="224.24" height="205.17" />
</clipPath>
<path style="stroke: none; stroke-width: 1; stroke-dasharray: none; stroke-linecap: butt; stroke-dashoffset: 0; stroke-linejoin: miter; stroke-miterlimit: 4; fill: rgb(255,255,255); fill-rule: nonzero; opacity: 0.14;" vector-effect="non-scaling-stroke"  transform=" translate(-130.2, -128.41)" d="M 101.655 151.242 C 100.424 150.912 99.4203 150.327 98.7234 149.481 C 97.3788 147.803 97.5354 145.446 99.2353 142.844 L 117.863 114.094 C 122.177 107.448 133.69 103.178 138.757 106.328 L 160.527 119.911 C 162.02 120.839 162.72 122.265 162.543 124.01 C 162.155 128.018 157.21 132.783 151.052 135.086 L 110.661 150.228 C 107.22 151.547 104.019 151.875 101.655 151.242 Z M 136.779 106.325 C 131.535 104.92 122.159 108.893 118.517 114.507 L 99.8899 143.256 C 98.4053 145.547 98.1982 147.601 99.3313 148.985 C 101.076 151.14 105.53 151.358 110.4 149.526 L 150.792 134.384 C 157.51 131.861 161.471 127.123 161.764 123.96 C 161.918 122.498 161.35 121.371 160.108 120.59 L 138.338 107.007 C 137.891 106.703 137.37 106.484 136.779 106.325 Z" stroke-linecap="round" />
</g>
<g transform="matrix(1 0 0 1 551.46 532.47)" clip-path="url(#CLIPPATH_7)"  >
<clipPath id="CLIPPATH_7" >
	<rect transform="matrix(0.97 0.26 -0.26 0.97 -7.47 5.47)" id="clip0_75_178" x="-112.12" y="-102.585" rx="0" ry="0" width="224.24" height="205.17" />
</clipPath>
<path style="stroke: none; stroke-width: 1; stroke-dasharray: none; stroke-linecap: butt; stroke-dashoffset: 0; stroke-linejoin: miter; stroke-miterlimit: 4; fill: rgb(255,255,255); fill-rule: nonzero; opacity: 0.14;" vector-effect="non-scaling-stroke"  transform=" translate(-130.52, -129.62)" d="M 100.132 154.866 C 98.9746 154.556 98.0311 154.04 97.3391 153.274 C 95.8024 151.624 95.7998 149.172 97.3111 146.387 L 114.628 114.65 C 118.619 107.337 130.807 101.931 136.724 104.86 L 162.207 117.488 C 163.979 118.358 164.901 119.844 164.863 121.758 C 164.767 126.055 159.988 131.286 153.454 134.201 L 110.679 153.317 C 106.7 155.071 102.889 155.605 100.132 154.866 Z M 135.199 105.137 C 129.34 103.567 118.826 108.632 115.314 115.045 L 97.997 146.782 C 96.6518 149.242 96.635 151.372 97.9223 152.772 C 99.6837 154.667 104.198 155.349 110.363 152.626 L 153.156 133.541 C 160.169 130.412 164.034 125.147 164.114 121.795 C 164.14 120.22 163.363 118.984 161.873 118.242 L 136.39 105.614 C 136.029 105.386 135.617 105.249 135.199 105.137 Z" stroke-linecap="round" />
</g>
<g transform="matrix(1 0 0 1 551.91 533.89)" clip-path="url(#CLIPPATH_8)"  >
<clipPath id="CLIPPATH_8" >
	<rect transform="matrix(0.97 0.26 -0.26 0.97 -8.38 2.62)" id="clip0_75_178" x="-112.12" y="-102.585" rx="0" ry="0" width="224.24" height="205.17" />
</clipPath>
<path style="stroke: none; stroke-width: 1; stroke-dasharray: none; stroke-linecap: butt; stroke-dashoffset: 0; stroke-linejoin: miter; stroke-miterlimit: 4; fill: rgb(255,255,255); fill-rule: nonzero; opacity: 0.14;" vector-effect="non-scaling-stroke"  transform=" translate(-130.98, -131.04)" d="M 98.9081 158.836 C 97.8495 158.552 96.9487 158.074 96.2303 157.407 C 94.5015 155.783 94.2593 153.241 95.6 150.305 L 111.143 115.536 C 114.72 107.506 127.521 100.893 134.34 103.511 L 163.832 114.866 C 165.939 115.668 167.113 117.195 167.214 119.278 C 167.461 123.773 162.759 129.604 156.043 133.102 L 110.976 156.534 C 106.474 158.86 102.035 159.674 98.9081 158.836 Z M 133.337 104.006 C 126.788 102.251 115.098 108.556 111.824 115.85 L 96.281 150.619 C 95.1064 153.23 95.2734 155.463 96.7529 156.835 C 98.8589 158.823 103.982 159.299 110.611 155.83 L 155.653 132.392 C 162.917 128.618 166.636 122.814 166.416 119.302 C 166.303 117.558 165.304 116.262 163.535 115.577 L 134.044 104.222 C 133.829 104.138 133.583 104.072 133.337 104.006 Z" stroke-linecap="round" />
</g>
<g transform="matrix(1 0 0 1 552.46 535.48)" clip-path="url(#CLIPPATH_9)"  >
<clipPath id="CLIPPATH_9" >
	<rect transform="matrix(0.97 0.26 -0.26 0.97 -9.48 -0.55)" id="clip0_75_178" x="-112.12" y="-102.585" rx="0" ry="0" width="224.24" height="205.17" />
</clipPath>
<path style="stroke: none; stroke-width: 1; stroke-dasharray: none; stroke-linecap: butt; stroke-dashoffset: 0; stroke-linejoin: miter; stroke-miterlimit: 4; fill: rgb(255,255,255); fill-rule: nonzero; opacity: 0.14;" vector-effect="non-scaling-stroke"  transform=" translate(-131.53, -132.63)" d="M 97.9774 163.094 C 97.0173 162.837 96.1525 162.421 95.4389 161.834 C 93.4869 160.256 93.0231 157.654 94.0948 154.541 L 107.353 116.682 C 110.403 107.957 123.734 99.9571 131.517 102.227 L 165.259 111.901 C 167.707 112.61 169.183 114.191 169.473 116.457 C 170.088 121.155 165.549 127.557 158.662 131.695 L 111.687 159.887 C 106.654 162.915 101.523 164.044 97.9774 163.094 Z M 131.189 102.956 C 123.853 100.991 110.952 108.763 108.096 116.96 L 94.8382 154.819 C 93.8522 157.613 94.2473 159.88 95.9369 161.256 C 98.9257 163.691 105.245 162.854 111.308 159.232 L 158.308 131.047 C 165.819 126.549 169.248 120.35 168.754 116.58 C 168.508 114.643 167.239 113.275 165.104 112.676 L 131.362 103.003 C 131.288 102.983 131.239 102.97 131.189 102.956 Z" stroke-linecap="round" />
</g>
<g transform="matrix(1 0 0 1 553.2 537.31)" clip-path="url(#CLIPPATH_10)"  >
<clipPath id="CLIPPATH_10" >
	<rect transform="matrix(0.97 0.26 -0.26 0.97 -10.96 -4.24)" id="clip0_75_178" x="-112.12" y="-102.585" rx="0" ry="0" width="224.24" height="205.17" />
</clipPath>
<path style="stroke: none; stroke-width: 1; stroke-dasharray: none; stroke-linecap: butt; stroke-dashoffset: 0; stroke-linejoin: miter; stroke-miterlimit: 4; fill: rgb(255,255,255); fill-rule: nonzero; opacity: 0.14;" vector-effect="non-scaling-stroke"  transform=" translate(-132.26, -134.48)" d="M 97.4087 167.686 C 96.547 167.455 95.7675 167.115 95.0769 166.64 C 92.8768 165.101 92.1357 162.451 92.9629 159.167 L 103.372 118.251 C 105.766 108.823 119.529 99.41 128.353 101.142 L 166.587 108.724 C 169.415 109.297 171.242 110.947 171.745 113.401 C 172.763 118.366 168.551 125.225 161.479 130.051 L 112.836 163.385 C 107.277 167.194 101.446 168.768 97.4087 167.686 Z M 167.011 109.602 C 166.839 109.556 166.642 109.503 166.438 109.475 L 128.205 101.893 C 119.886 100.244 106.398 109.52 104.117 118.424 L 93.7081 159.34 C 92.9599 162.329 93.5586 164.625 95.5207 165.968 C 99.0775 168.45 106.03 167.123 112.402 162.741 L 161.045 129.408 C 168.642 124.195 171.814 117.479 170.995 113.543 C 170.577 111.559 169.202 110.189 167.011 109.602 Z" stroke-linecap="round" />
</g>
<g transform="matrix(1 0 0 1 554.09 539.32)" clip-path="url(#CLIPPATH_11)"  >
<clipPath id="CLIPPATH_11" >
	<rect transform="matrix(0.97 0.26 -0.26 0.97 -12.72 -8.24)" id="clip0_75_178" x="-112.12" y="-102.585" rx="0" ry="0" width="224.24" height="205.17" />
</clipPath>
<path style="stroke: none; stroke-width: 1; stroke-dasharray: none; stroke-linecap: butt; stroke-dashoffset: 0; stroke-linejoin: miter; stroke-miterlimit: 4; fill: rgb(255,255,255); fill-rule: nonzero; opacity: 0.14;" vector-effect="non-scaling-stroke"  transform=" translate(-133.14, -136.48)" d="M 97.1729 172.5 C 96.4589 172.309 95.796 172.025 95.202 171.682 C 92.7409 170.232 91.6731 167.52 92.2001 164.077 L 99.117 120.143 C 100.712 110.052 114.823 99.0455 124.702 100.19 L 167.682 105.222 C 170.958 105.599 173.168 107.298 173.921 110.004 C 175.369 115.137 171.45 122.575 164.385 128.063 L 114.506 166.996 C 108.506 171.662 101.752 173.727 97.1729 172.5 Z M 167.626 105.629 L 167.576 106.011 L 124.596 100.979 C 115.229 99.8925 101.382 110.706 99.8754 120.267 L 92.9584 164.201 C 92.4547 167.361 93.3554 169.711 95.5655 171.015 C 99.7592 173.483 107.339 171.586 113.984 166.381 L 163.882 127.48 C 170.69 122.16 174.517 115.067 173.144 110.244 C 172.473 107.824 170.537 106.382 167.545 106.029 L 167.626 105.629 Z" stroke-linecap="round" />
</g>
<g transform="matrix(1 0 0 1 555.12 541.6)" clip-path="url(#CLIPPATH_12)"  >
<clipPath id="CLIPPATH_12" >
	<rect transform="matrix(0.97 0.26 -0.26 0.97 -14.8 -12.79)" id="clip0_75_178" x="-112.12" y="-102.585" rx="0" ry="0" width="224.24" height="205.17" />
</clipPath>
<path style="stroke: none; stroke-width: 1; stroke-dasharray: none; stroke-linecap: butt; stroke-dashoffset: 0; stroke-linejoin: miter; stroke-miterlimit: 4; fill: rgb(255,255,255); fill-rule: nonzero; opacity: 0.14;" vector-effect="non-scaling-stroke"  transform=" translate(-134.18, -138.75)" d="M 97.4669 177.613 C 96.9253 177.468 96.3969 177.273 95.9063 177.036 C 93.1282 175.686 91.696 172.956 91.8981 169.346 L 94.6283 122.524 C 95.2459 111.75 109.563 99.0852 120.579 99.5325 L 168.493 101.511 C 172.249 101.674 174.929 103.393 175.986 106.339 C 177.871 111.615 174.325 119.628 167.367 125.803 L 116.722 170.646 C 110.322 176.312 102.711 179.018 97.4669 177.613 Z M 168.475 101.875 L 168.45 102.264 L 120.535 100.285 C 110.095 99.8602 96.0087 112.35 95.413 122.55 L 92.6828 169.372 C 92.4793 172.691 93.7132 175.078 96.2337 176.307 C 101.14 178.676 109.349 176.104 116.169 170.05 L 166.796 125.176 C 173.541 119.207 176.988 111.563 175.192 106.548 C 174.222 103.863 171.879 102.366 168.407 102.226 L 168.475 101.875 Z" stroke-linecap="round" />
</g>
<g transform="matrix(1 0 0 1 555.26 543.25)" clip-path="url(#CLIPPATH_13)"  >
<clipPath id="CLIPPATH_13" >
	<rect transform="matrix(0.97 0.26 -0.26 0.97 -15.07 -16.1)" id="clip0_75_178" x="-112.12" y="-102.585" rx="0" ry="0" width="224.24" height="205.17" />
</clipPath>
<path style="stroke: none; stroke-width: 1; stroke-dasharray: none; stroke-linecap: butt; stroke-dashoffset: 0; stroke-linejoin: miter; stroke-miterlimit: 4; fill: rgb(255,255,255); fill-rule: nonzero; opacity: 0.14;" vector-effect="non-scaling-stroke"  transform=" translate(-134.33, -140.41)" d="M 98.329 182.958 C 97.9844 182.866 97.6463 182.749 97.3328 182.638 C 94.1754 181.423 92.3542 178.668 92.1755 174.904 L 89.9932 125.342 C 89.7682 120.273 92.4694 114.328 97.4356 108.99 C 102.924 103.08 110.035 99.2911 115.991 99.1209 L 168.967 97.4735 C 173.278 97.3371 176.434 99.0524 177.857 102.307 C 180.257 107.827 177.25 116.194 170.353 123.124 L 119.559 174.333 C 112.825 181.148 104.287 184.554 98.329 182.958 Z M 172.33 98.6118 C 171.32 98.3414 170.216 98.2299 168.991 98.2707 L 115.997 99.8869 C 110.251 100.061 103.328 103.741 97.9768 109.53 C 93.2308 114.638 90.5428 120.534 90.7418 125.305 L 92.9487 174.874 C 93.0948 178.366 94.7112 180.802 97.6044 181.92 C 103.299 184.105 112.083 180.765 119.018 173.793 L 169.812 122.584 C 176.357 115.981 179.38 107.75 177.141 102.616 C 176.26 100.587 174.595 99.2187 172.33 98.6118 Z" stroke-linecap="round" />
</g>
<g transform="matrix(1 0 0 1 553.82 543.86)" clip-path="url(#CLIPPATH_14)"  >
<clipPath id="CLIPPATH_14" >
	<rect transform="matrix(0.97 0.26 -0.26 0.97 -12.2 -17.31)" id="clip0_75_178" x="-112.12" y="-102.585" rx="0" ry="0" width="224.24" height="205.17" />
</clipPath>
<path style="stroke: none; stroke-width: 1; stroke-dasharray: none; stroke-linecap: butt; stroke-dashoffset: 0; stroke-linejoin: miter; stroke-miterlimit: 4; fill: rgb(255,255,255); fill-rule: nonzero; opacity: 0.14;" vector-effect="non-scaling-stroke"  transform=" translate(-132.88, -141.01)" d="M 99.7961 188.517 C 99.7223 188.498 99.6484 188.478 99.5746 188.458 C 96 187.421 93.7026 184.67 93.094 180.738 L 85.1732 128.663 C 84.4048 123.555 86.5548 117.303 91.0782 111.451 C 96.5105 104.471 104.095 99.7026 110.875 99.0153 L 169.065 93.1764 C 173.975 92.6734 177.687 94.3797 179.532 97.9319 C 182.456 103.565 179.99 112.473 173.391 120.063 L 123.116 178.001 C 116.133 186.041 106.591 190.338 99.7961 188.517 Z M 169.107 93.6095 L 169.138 93.9868 L 110.948 99.8257 C 104.36 100.485 96.9942 105.128 91.6818 111.955 C 87.2916 117.606 85.1944 123.661 85.935 128.578 L 93.8558 180.652 C 94.4253 184.337 96.4619 186.781 99.7903 187.751 C 106.331 189.636 115.661 185.44 122.53 177.528 L 172.792 119.639 C 179.195 112.287 181.618 103.736 178.832 98.377 C 177.143 95.1301 173.682 93.5702 169.125 94.036 L 169.107 93.6095 Z" stroke-linecap="round" />
</g>
<g transform="matrix(1 0 0 1 552.2 544.44)" clip-path="url(#CLIPPATH_15)"  >
<clipPath id="CLIPPATH_15" >
	<rect transform="matrix(0.97 0.26 -0.26 0.97 -8.95 -18.47)" id="clip0_75_178" x="-112.12" y="-102.585" rx="0" ry="0" width="224.24" height="205.17" />
</clipPath>
<path style="stroke: none; stroke-width: 1; stroke-dasharray: none; stroke-linecap: butt; stroke-dashoffset: 0; stroke-linejoin: miter; stroke-miterlimit: 4; fill: rgb(255,255,255); fill-rule: nonzero; opacity: 0.14;" vector-effect="non-scaling-stroke"  transform=" translate(-131.26, -141.59)" d="M 101.976 194.268 C 98.3324 193.292 95.7854 190.685 94.7547 186.85 L 80.2431 132.588 C 78.8755 127.45 80.4003 120.873 84.4744 114.532 C 89.6713 106.461 97.6192 100.63 105.238 99.3761 L 168.7 88.7291 C 174.254 87.7923 178.616 89.4356 180.982 93.3116 C 184.514 99.1347 182.735 108.332 176.402 116.705 L 127.452 181.614 C 120.619 190.67 110.467 195.963 102.795 194.461 C 102.524 194.388 102.247 194.34 101.976 194.268 Z M 174.817 89.6302 C 173.069 89.1618 171.055 89.0966 168.817 89.4723 L 105.355 100.119 C 97.9534 101.352 90.206 107.026 85.129 114.944 C 81.1881 121.084 79.6734 127.427 80.9886 132.366 L 95.5003 186.628 C 96.5489 190.494 99.1109 192.947 102.925 193.679 C 110.326 195.108 120.148 189.964 126.817 181.128 L 175.767 116.218 C 181.792 108.211 183.635 99.1629 180.295 93.7076 C 179.056 91.6358 177.181 90.2635 174.817 89.6302 Z" stroke-linecap="round" />
</g>
<g transform="matrix(1 0 0 1 550.31 544.87)" clip-path="url(#CLIPPATH_16)"  >
<clipPath id="CLIPPATH_16" >
	<rect transform="matrix(0.97 0.26 -0.26 0.97 -5.17 -19.36)" id="clip0_75_178" x="-112.12" y="-102.585" rx="0" ry="0" width="224.24" height="205.17" />
</clipPath>
<path style="stroke: none; stroke-width: 1; stroke-dasharray: none; stroke-linecap: butt; stroke-dashoffset: 0; stroke-linejoin: miter; stroke-miterlimit: 4; fill: rgb(255,255,255); fill-rule: nonzero; opacity: 0.14;" vector-effect="non-scaling-stroke"  transform=" translate(-129.37, -142.04)" d="M 104.944 200.124 C 101.35 199.161 98.6517 196.725 97.2466 193.106 L 75.2161 137.066 C 73.1755 131.88 74.0686 125.002 77.644 118.158 C 82.374 109.171 90.763 102.088 99.0421 100.141 L 167.8 84.0069 C 173.938 82.5674 179.143 84.12 182.09 88.2839 C 186.258 94.1981 185.183 103.822 179.334 112.851 L 132.599 185.049 C 126.153 195.026 115.668 201.363 107.083 200.513 C 106.343 200.42 105.634 200.309 104.944 200.124 Z M 167.887 84.3727 L 167.974 84.7386 L 99.2335 100.904 C 91.1777 102.805 82.9645 109.725 78.3365 118.528 C 74.8695 125.164 73.9866 131.808 75.9502 136.789 L 97.9806 192.828 C 99.5823 196.895 102.763 199.303 107.158 199.742 C 115.459 200.569 125.644 194.363 131.945 184.637 L 178.654 112.432 C 184.326 103.671 185.42 94.3691 181.44 88.7423 C 178.643 84.8033 173.875 83.394 167.967 84.7632 L 167.887 84.3727 Z" stroke-linecap="round" />
</g>
<g transform="matrix(1 0 0 1 548.18 545.17)" clip-path="url(#CLIPPATH_17)"  >
<clipPath id="CLIPPATH_17" >
	<rect transform="matrix(0.97 0.26 -0.26 0.97 -0.91 -19.96)" id="clip0_75_178" x="-112.12" y="-102.585" rx="0" ry="0" width="224.24" height="205.17" />
</clipPath>
<path style="stroke: none; stroke-width: 1; stroke-dasharray: none; stroke-linecap: butt; stroke-dashoffset: 0; stroke-linejoin: miter; stroke-miterlimit: 4; fill: rgb(255,255,255); fill-rule: nonzero; opacity: 0.14;" vector-effect="non-scaling-stroke"  transform=" translate(-127.25, -142.34)" d="M 108.795 206.033 C 105.299 205.097 102.493 202.868 100.724 199.521 L 70.2094 142.157 C 67.44 136.934 67.6094 129.704 70.6616 122.35 C 74.8147 112.365 83.3213 104.154 92.3366 101.429 L 166.267 79.089 C 173.102 77.0191 179.112 78.4187 182.79 82.9101 C 187.637 88.8482 187.365 98.9239 182.117 108.563 L 138.677 188.26 C 132.798 199.074 122.077 206.587 112.676 206.52 C 111.297 206.545 110.001 206.357 108.795 206.033 Z M 166.49 79.834 L 92.5592 102.174 C 83.7738 104.828 75.4429 112.877 71.3738 122.647 C 68.3989 129.81 68.2215 136.774 70.8828 141.81 L 101.373 199.168 C 103.615 203.406 107.631 205.748 112.639 205.772 C 121.781 205.822 132.221 198.471 137.978 187.915 L 181.418 108.217 C 186.513 98.8537 186.829 89.1062 182.182 83.4062 C 178.722 79.1841 173.007 77.8637 166.49 79.834 Z" stroke-linecap="round" />
</g>
<g transform="matrix(1 0 0 1 545.82 545.39)" clip-path="url(#CLIPPATH_18)"  >
<clipPath id="CLIPPATH_18" >
	<rect transform="matrix(0.97 0.26 -0.26 0.97 3.8 -20.38)" id="clip0_75_178" x="-112.12" y="-102.585" rx="0" ry="0" width="224.24" height="205.17" />
</clipPath>
<path style="stroke: none; stroke-width: 1; stroke-dasharray: none; stroke-linecap: butt; stroke-dashoffset: 0; stroke-linejoin: miter; stroke-miterlimit: 4; fill: rgb(255,255,255); fill-rule: nonzero; opacity: 0.14;" vector-effect="non-scaling-stroke"  transform=" translate(-124.89, -142.55)" d="M 113.537 211.97 C 110.14 211.06 107.299 209.059 105.228 206.053 L 65.2546 147.947 C 61.6266 142.678 60.9919 135.101 63.5161 127.158 C 66.9608 116.271 75.4308 106.916 85.097 103.338 L 164.076 74.0734 C 171.633 71.2746 178.55 72.4426 183.045 77.2321 C 188.707 83.2829 189.354 93.4731 184.717 103.882 L 145.719 191.228 C 140.486 202.979 129.996 211.503 119.637 212.445 C 117.452 212.623 115.408 212.471 113.537 211.97 Z M 175.955 73.856 C 172.508 72.9325 168.522 73.2351 164.311 74.7693 L 85.3574 104.04 C 75.921 107.548 67.64 116.69 64.2481 127.38 C 61.8078 135.109 62.4033 142.438 65.8739 147.507 L 105.854 205.588 C 108.915 210.019 113.769 212.19 119.558 211.659 C 129.643 210.75 139.877 202.394 144.989 190.9 L 183.987 103.554 C 188.488 93.4521 187.917 83.5721 182.455 77.7594 C 180.676 75.8328 178.466 74.5289 175.955 73.856 Z" stroke-linecap="round" />
</g>
<g transform="matrix(1 0 0 1 543.16 545.38)" clip-path="url(#CLIPPATH_19)"  >
<clipPath id="CLIPPATH_19" >
	<rect transform="matrix(0.97 0.26 -0.26 0.97 9.13 -20.36)" id="clip0_75_178" x="-112.12" y="-102.585" rx="0" ry="0" width="224.24" height="205.17" />
</clipPath>
<path style="stroke: none; stroke-width: 1; stroke-dasharray: none; stroke-linecap: butt; stroke-dashoffset: 0; stroke-linejoin: miter; stroke-miterlimit: 4; fill: rgb(255,255,255); fill-rule: nonzero; opacity: 0.14;" vector-effect="non-scaling-stroke"  transform=" translate(-122.23, -142.54)" d="M 119.284 217.806 C 116.059 216.942 113.207 215.176 110.908 212.53 L 60.4132 154.399 C 55.815 149.108 54.309 141.139 56.2198 132.53 C 58.8314 120.815 67.1218 110.357 77.2978 105.861 L 161.028 68.9073 C 169.286 65.268 177.191 66.0946 182.689 71.1791 C 189.186 77.1639 190.841 87.7295 187.005 98.6956 L 153.745 193.774 C 149.423 206.164 139.104 215.92 128.121 218.012 C 125.007 218.602 121.992 218.532 119.284 217.806 Z M 161.22 69.2749 L 161.387 69.636 L 77.6386 106.558 C 67.6745 110.953 59.5664 121.222 56.9962 132.686 C 55.12 141.066 56.5869 148.787 61.0277 153.879 L 111.491 212.028 C 115.525 216.667 121.386 218.527 128.01 217.245 C 138.745 215.192 148.794 205.653 153.051 193.509 L 186.311 98.4305 C 190.043 87.753 188.482 77.5287 182.198 71.7328 C 176.931 66.8684 169.328 66.0964 161.369 69.6048 L 161.22 69.2749 Z" stroke-linecap="round" />
</g>
<g transform="matrix(1 0 0 1 540.29 545.2)" clip-path="url(#CLIPPATH_20)"  >
<clipPath id="CLIPPATH_20" >
	<rect transform="matrix(0.97 0.26 -0.26 0.97 14.86 -19.99)" id="clip0_75_178" x="-112.12" y="-102.585" rx="0" ry="0" width="224.24" height="205.17" />
</clipPath>
<path style="stroke: none; stroke-width: 1; stroke-dasharray: none; stroke-linecap: butt; stroke-dashoffset: 0; stroke-linejoin: miter; stroke-miterlimit: 4; fill: rgb(255,255,255); fill-rule: nonzero; opacity: 0.14;" vector-effect="non-scaling-stroke"  transform=" translate(-119.35, -142.34)" d="M 126.102 223.481 C 123.074 222.67 120.318 221.14 117.9 218.937 L 55.8257 161.578 C 50.1145 156.305 47.5647 147.898 48.8328 138.538 C 50.5158 126.151 58.4412 114.594 69.0597 109.136 L 157.196 63.7151 C 166.131 59.1239 175.076 59.5173 181.758 64.8135 C 189.177 70.7028 191.971 81.5473 189.066 93.0789 L 163.01 195.834 C 159.677 208.964 150.028 219.664 138.399 223.086 C 134.044 224.37 129.869 224.49 126.102 223.481 Z M 157.37 64.0516 L 157.543 64.3881 L 69.4005 109.833 C 59.0185 115.197 51.2394 126.503 49.5977 138.637 C 48.3709 147.745 50.8257 155.916 56.3483 161.007 L 118.423 218.366 C 123.629 223.161 130.634 224.59 138.17 222.365 C 149.52 219.001 158.979 208.514 162.24 195.654 L 188.296 92.899 C 191.147 81.6691 188.453 71.1414 181.271 65.4476 C 174.852 60.3535 166.191 59.9834 157.555 64.4439 L 157.37 64.0516 Z" stroke-linecap="round" />
</g>
<g transform="matrix(1 0 0 1 537.1 544.75)" clip-path="url(#CLIPPATH_21)"  >
<clipPath id="CLIPPATH_21" >
	<rect transform="matrix(0.97 0.26 -0.26 0.97 21.24 -19.1)" id="clip0_75_178" x="-112.12" y="-102.585" rx="0" ry="0" width="224.24" height="205.17" />
</clipPath>
<path style="stroke: none; stroke-width: 1; stroke-dasharray: none; stroke-linecap: butt; stroke-dashoffset: 0; stroke-linejoin: miter; stroke-miterlimit: 4; fill: rgb(255,255,255); fill-rule: nonzero; opacity: 0.14;" vector-effect="non-scaling-stroke"  transform=" translate(-116.17, -141.91)" d="M 133.931 228.822 C 131.198 228.09 128.628 226.847 126.295 225.115 L 51.5131 169.491 C 44.4967 164.264 40.749 155.404 41.2955 145.191 C 41.9712 132.034 49.2407 119.774 60.2854 113.217 L 152.334 58.5119 C 161.75 52.9159 172.083 52.7586 179.969 58.0876 C 188.571 63.8983 192.54 74.6887 190.624 86.9599 L 173.326 197.307 C 171.204 210.841 162.198 222.689 150.353 227.502 C 144.783 229.779 139.076 230.2 133.931 228.822 Z M 152.551 58.8862 L 152.749 59.2293 L 60.6821 113.904 C 49.887 120.316 42.7639 132.326 42.0736 145.241 C 41.5684 155.202 45.1719 163.812 51.9931 168.882 L 126.775 224.506 C 133.292 229.336 141.772 230.185 150.093 226.8 C 161.676 222.074 170.518 210.446 172.592 197.19 L 189.884 86.867 C 191.77 74.9041 187.907 64.4058 179.55 58.7661 C 171.932 53.6145 161.915 53.7772 152.756 59.2047 L 152.551 58.8862 Z" stroke-linecap="round" />
</g>
<g transform="matrix(1 0 0 1 533.66 544.07)" clip-path="url(#CLIPPATH_22)"  >
<clipPath id="CLIPPATH_22" >
	<rect transform="matrix(0.97 0.26 -0.26 0.97 28.12 -17.74)" id="clip0_75_178" x="-112.12" y="-102.585" rx="0" ry="0" width="224.24" height="205.17" />
</clipPath>
<path style="stroke: none; stroke-width: 1; stroke-dasharray: none; stroke-linecap: butt; stroke-dashoffset: 0; stroke-linejoin: miter; stroke-miterlimit: 4; fill: rgb(255,255,255); fill-rule: nonzero; opacity: 0.14;" vector-effect="non-scaling-stroke"  transform=" translate(-112.73, -141.23)" d="M 142.977 233.855 C 140.639 233.229 138.385 232.282 136.249 230.998 L 47.7088 178.172 C 39.1573 173.06 34.0573 163.733 33.7297 152.548 C 33.3191 138.915 39.9787 125.78 51.1081 118.218 L 146.434 53.4511 C 156.369 46.7027 167.894 45.8369 177.24 51.1353 C 187.021 56.682 192.428 67.6204 191.683 80.4428 L 184.898 198.035 C 184.097 212.055 176.148 224.687 164.185 231.024 C 157.2 234.74 149.772 235.676 142.977 233.855 Z M 146.663 53.7762 L 146.893 54.1013 L 51.5425 118.862 C 40.6382 126.273 34.0937 139.175 34.4964 152.542 C 34.8226 163.437 39.7718 172.54 48.0968 177.512 L 136.662 230.344 C 144.785 235.183 154.676 235.198 163.838 230.351 C 175.582 224.14 183.36 211.752 184.145 197.992 L 190.93 80.399 C 191.644 67.885 186.406 57.2027 176.87 51.8269 C 167.775 46.6749 156.572 47.5215 146.886 54.1259 L 146.663 53.7762 Z" stroke-linecap="round" />
</g>
<g transform="matrix(1 0 0 1 532.73 543.07)" clip-path="url(#CLIPPATH_23)"  >
<clipPath id="CLIPPATH_23" >
	<rect transform="matrix(0.97 0.26 -0.26 0.97 29.98 -15.74)" id="clip0_75_178" x="-112.12" y="-102.585" rx="0" ry="0" width="224.24" height="205.17" />
</clipPath>
<path style="stroke: none; stroke-width: 1; stroke-dasharray: none; stroke-linecap: butt; stroke-dashoffset: 0; stroke-linejoin: miter; stroke-miterlimit: 4; fill: rgb(255,255,255); fill-rule: nonzero; opacity: 0.14;" vector-effect="non-scaling-stroke"  transform=" translate(-111.8, -140.23)" d="M 153.142 238.371 C 151.345 237.889 149.594 237.236 147.858 236.428 L 44.4207 187.598 C 34.091 182.721 27.404 172.916 26.0678 160.669 C 24.5314 146.709 30.4628 132.746 41.516 124.188 L 139.359 48.5499 C 149.704 40.567 162.412 38.8319 173.375 43.9046 C 184.528 49.0547 191.541 60.107 192.129 73.4709 L 197.731 197.915 C 198.367 212.082 191.52 225.721 179.837 233.477 C 171.455 239.06 161.981 240.739 153.142 238.371 Z M 168.169 42.8523 C 158.69 40.3126 148.435 42.5466 139.849 49.1821 L 42.0063 124.82 C 31.1601 133.196 25.3438 146.926 26.8543 160.59 C 28.1579 172.564 34.6941 182.144 44.7661 186.899 L 148.204 235.73 C 158.208 240.44 169.57 239.399 179.427 232.84 C 190.885 225.235 197.611 211.853 196.982 197.951 L 191.356 73.501 C 190.763 60.452 183.919 49.6558 173.054 44.6095 C 171.459 43.8658 169.818 43.2942 168.169 42.8523 Z" stroke-linecap="round" />
</g>
<g transform="matrix(1 0 0 1 535.96 541.71)" clip-path="url(#CLIPPATH_24)"  >
<clipPath id="CLIPPATH_24" >
	<rect transform="matrix(0.97 0.26 -0.26 0.97 23.52 -13.02)" id="clip0_75_178" x="-112.12" y="-102.585" rx="0" ry="0" width="224.24" height="205.17" />
</clipPath>
<path style="stroke: none; stroke-width: 1; stroke-dasharray: none; stroke-linecap: butt; stroke-dashoffset: 0; stroke-linejoin: miter; stroke-miterlimit: 4; fill: rgb(255,255,255); fill-rule: nonzero; opacity: 0.14;" vector-effect="non-scaling-stroke"  transform=" translate(-115.03, -138.86)" d="M 164.253 242.193 C 163.244 241.922 162.248 241.602 161.234 241.252 L 41.8621 197.826 C 29.6704 193.399 20.9123 182.855 18.4115 169.637 C 15.7263 155.237 20.6501 140.898 31.6535 131.247 L 131.037 43.9485 C 141.602 34.6537 155.483 31.8886 168.203 36.5095 C 180.899 41.1238 189.753 52.1952 191.891 66.0797 L 211.878 196.803 C 214.099 211.264 208.665 225.439 197.34 234.715 C 187.752 242.532 175.603 245.234 164.253 242.193 Z M 164.937 36.2932 C 153.341 33.1862 141.064 36.1702 131.541 44.5315 L 32.1569 131.83 C 21.3606 141.3 16.5026 155.392 19.1619 169.495 C 21.6055 182.434 30.1816 192.772 42.1091 197.101 L 161.481 240.527 C 173.408 244.856 186.609 242.463 196.812 234.125 C 207.93 225.031 213.26 211.145 211.079 196.932 L 191.091 66.2081 C 189.017 52.5779 180.332 41.7627 167.932 37.2276 C 166.917 36.8767 165.921 36.5571 164.937 36.2932 Z" stroke-linecap="round" />
</g>
<g transform="matrix(1 0 0 1 540 598.63)" clip-path="url(#CLIPPATH_25)"  >
<clipPath id="CLIPPATH_25" >
	<rect transform="matrix(0.97 0.26 -0.26 0.97 15.45 -9.6)" id="clip0_75_178" x="-112.12" y="-102.585" rx="0" ry="0" width="224.24" height="205.17" />
</clipPath>
<path style="stroke: none; stroke-width: 0; stroke-dasharray: none; stroke-linecap: butt; stroke-dashoffset: 0; stroke-linejoin: miter; stroke-miterlimit: 4; fill: rgb(255,255,255); fill-rule: nonzero; opacity: 1;" vector-effect="non-scaling-stroke"  transform=" translate(-119.07, -137.15)" d="M 176.511 245.292 L 40.1733 208.76 C 25.6976 204.882 14.7269 193.929 10.8499 179.446 C 6.97292 164.964 10.9796 150.01 21.5718 139.431 L 121.322 39.7369 C 131.945 29.1398 146.923 25.1396 161.398 29.0183 C 175.874 32.8971 186.845 43.8501 190.722 58.3326 L 227.285 194.552 C 231.162 209.035 227.156 223.988 216.563 234.567 C 205.971 245.146 190.987 249.171 176.511 245.292 Z M 121.62 40.0014 L 121.888 40.2839 L 22.1131 139.972 C 11.7033 150.363 7.76904 165.045 11.5888 179.249 C 15.4086 193.452 26.1727 204.192 40.3776 207.998 L 176.716 244.53 C 190.921 248.336 205.612 244.417 216.022 234.026 C 226.432 223.636 230.366 208.953 226.546 194.75 L 189.983 58.53 C 186.163 44.3265 175.406 33.5624 161.201 29.7562 C 146.996 25.95 132.304 29.8686 121.894 40.2593 L 121.62 40.0014 Z" stroke-linecap="round" />
</g>
</svg>