<svg width="31" height="31" viewBox="0 0 31 31" fill="none" xmlns="http://www.w3.org/2000/svg">
<path d="M15.1074 30.1387C23.3917 30.1387 30.1074 23.4229 30.1074 15.1387C30.1074 6.8544 23.3917 0.138672 15.1074 0.138672C6.82315 0.138672 0.107422 6.8544 0.107422 15.1387C0.107422 23.4229 6.82315 30.1387 15.1074 30.1387Z" fill="#09B850"/>
<path d="M6.70372 16.2259C7.35995 16.2259 7.89187 15.6939 7.89187 15.0378C7.89187 14.3816 7.35995 13.8496 6.70372 13.8496C6.04754 13.8496 5.51562 14.3816 5.51562 15.0378C5.51562 15.6939 6.04754 16.2259 6.70372 16.2259Z" fill="white"/>
<path d="M23.8167 18.1959H23.6504C23.2464 18.1959 22.9375 17.887 22.9375 17.483V12.5879C22.9375 12.1839 23.2464 11.875 23.6504 11.875H23.8167C24.2207 11.875 24.5296 12.1839 24.5296 12.5879V17.5068C24.5296 17.887 24.2207 18.1959 23.8167 18.1959Z" fill="white"/>
<path d="M20.6527 21.4003H20.4863C20.0823 21.4003 19.7734 21.0914 19.7734 20.6874V9.42382C19.7734 9.01984 20.0823 8.71094 20.4863 8.71094H20.6527C21.0566 8.71094 21.3656 9.01984 21.3656 9.42382V20.6636C21.3656 21.0676 21.0329 21.4003 20.6527 21.4003Z" fill="white"/>
<path d="M17.4886 17.4127H17.3223C16.9183 17.4127 16.6094 17.1038 16.6094 16.6998V13.373C16.6094 12.9691 16.9183 12.6602 17.3223 12.6602H17.4886C17.8926 12.6602 18.2015 12.9691 18.2015 13.373V16.6998C18.2015 17.1038 17.8926 17.4127 17.4886 17.4127Z" fill="white"/>
<path d="M8.90852 15.2981C9.05107 15.8921 9.40754 16.2248 9.83528 16.2961C10.0729 16.3436 10.2868 16.51 10.3818 16.7238L13.4948 24.2091C13.6135 24.4705 13.8749 24.6368 14.1601 24.6368H14.5403C14.9443 24.6368 15.2532 24.3279 15.2532 23.924V6.36323C15.2532 5.95929 14.9443 5.65039 14.5403 5.65039H14.1363C13.8512 5.65039 13.5898 5.8167 13.471 6.07808L10.3581 13.5871C10.263 13.8248 10.0492 13.9674 9.81152 14.0149C9.38378 14.1099 9.02731 14.4189 8.88477 15.0129C8.88477 15.1079 8.88477 15.203 8.90852 15.2981ZM11.5462 14.8703L13.067 11.1871C13.1858 10.8782 13.6611 10.9732 13.6611 11.3059V18.9813C13.6611 19.314 13.1858 19.409 13.067 19.1001L11.5462 15.4169C11.4749 15.2505 11.4749 15.0604 11.5462 14.8703Z" fill="white"/>
</svg>
