<?xml version="1.0" encoding="UTF-8" standalone="no" ?>
<!DOCTYPE svg PUBLIC "-//W3C//DTD SVG 1.1//EN" "http://www.w3.org/Graphics/SVG/1.1/DTD/svg11.dtd">
<svg xmlns="http://www.w3.org/2000/svg" xmlns:xlink="http://www.w3.org/1999/xlink" version="1.1" width="1080" height="1080" viewBox="0 0 1080 1080" xml:space="preserve">
<desc>Created with Fabric.js 5.2.4</desc>
<defs>
</defs>
<g transform="matrix(1 0 0 1 540 540)" id="a07d6556-aa63-4a8a-aede-840c738562a9"  >
<rect style="stroke: none; stroke-width: 1; stroke-dasharray: none; stroke-linecap: butt; stroke-dashoffset: 0; stroke-linejoin: miter; stroke-miterlimit: 4; fill: rgb(255,255,255); fill-rule: nonzero; opacity: 1; visibility: hidden;" vector-effect="non-scaling-stroke"  x="-540" y="-540" rx="0" ry="0" width="1080" height="1080" />
</g>
<g transform="matrix(1 0 0 1 540 540)" id="b2a823a5-b281-458d-ad22-95aaf317ce42"  >
</g>
<g transform="matrix(1 0 0 1 466.89 540)"  >
<circle style="stroke: none; stroke-width: 1; stroke-dasharray: none; stroke-linecap: butt; stroke-dashoffset: 0; stroke-linejoin: miter; stroke-miterlimit: 4; fill: rgb(9,184,80); fill-rule: nonzero; opacity: 1;" vector-effect="non-scaling-stroke"  cx="0" cy="0" r="31" />
</g>
<g transform="matrix(1 0 0 1 449.51 539.8)"  >
<path style="stroke: none; stroke-width: 1; stroke-dasharray: none; stroke-linecap: butt; stroke-dashoffset: 0; stroke-linejoin: miter; stroke-miterlimit: 4; fill: rgb(255,255,255); fill-rule: nonzero; opacity: 1;" vector-effect="non-scaling-stroke"  transform=" translate(-13.62, -30.8)" d="M 13.6156 33.2596 C 14.9718 33.2596 16.0711 32.1602 16.0711 30.8041 C 16.0711 29.448 14.9718 28.3486 13.6156 28.3486 C 12.2595 28.3486 11.1602 29.448 11.1602 30.8041 C 11.1602 32.1602 12.2595 33.2596 13.6156 33.2596 Z" stroke-linecap="round" />
</g>
<g transform="matrix(1 0 0 1 484.7 539.8)"  >
<path style="stroke: none; stroke-width: 1; stroke-dasharray: none; stroke-linecap: butt; stroke-dashoffset: 0; stroke-linejoin: miter; stroke-miterlimit: 4; fill: rgb(255,255,255); fill-rule: nonzero; opacity: 1;" vector-effect="non-scaling-stroke"  transform=" translate(-48.8, -30.8)" d="M 48.9753 37.3357 L 48.6315 37.3357 C 47.7966 37.3357 47.1582 36.6972 47.1582 35.8624 L 47.1582 25.7458 C 47.1582 24.9109 47.7966 24.2725 48.6315 24.2725 L 48.9753 24.2725 C 49.8101 24.2725 50.4486 24.9109 50.4486 25.7458 L 50.4486 35.9115 C 50.4486 36.6972 49.8101 37.3357 48.9753 37.3357 Z" stroke-linecap="round" />
</g>
<g transform="matrix(1 0 0 1 478.16 539.8)"  >
<path style="stroke: none; stroke-width: 1; stroke-dasharray: none; stroke-linecap: butt; stroke-dashoffset: 0; stroke-linejoin: miter; stroke-miterlimit: 4; fill: rgb(255,255,255); fill-rule: nonzero; opacity: 1;" vector-effect="non-scaling-stroke"  transform=" translate(-42.27, -30.8)" d="M 42.4421 43.916 L 42.0983 43.916 C 41.2634 43.916 40.625 43.2776 40.625 42.4427 L 40.625 19.1647 C 40.625 18.3298 41.2634 17.6914 42.0983 17.6914 L 42.4421 17.6914 C 43.2769 17.6914 43.9154 18.3298 43.9154 19.1647 L 43.9154 42.3936 C 43.9154 43.2285 43.2278 43.916 42.4421 43.916 Z" stroke-linecap="round" />
</g>
<g transform="matrix(1 0 0 1 471.58 539.8)"  >
<path style="stroke: none; stroke-width: 1; stroke-dasharray: none; stroke-linecap: butt; stroke-dashoffset: 0; stroke-linejoin: miter; stroke-miterlimit: 4; fill: rgb(255,255,255); fill-rule: nonzero; opacity: 1;" vector-effect="non-scaling-stroke"  transform=" translate(-35.69, -30.8)" d="M 35.862 35.715 L 35.5182 35.715 C 34.6833 35.715 34.0449 35.0766 34.0449 34.2417 L 34.0449 27.3664 C 34.0449 26.5315 34.6833 25.8931 35.5182 25.8931 L 35.862 25.8931 C 36.6968 25.8931 37.3353 26.5315 37.3353 27.3664 L 37.3353 34.2417 C 37.3353 35.0766 36.6968 35.715 35.862 35.715 Z" stroke-linecap="round" />
</g>
<g transform="matrix(1 0 0 1 460.62 540)"  >
<path style="stroke: none; stroke-width: 1; stroke-dasharray: none; stroke-linecap: butt; stroke-dashoffset: 0; stroke-linejoin: miter; stroke-miterlimit: 4; fill: rgb(255,255,255); fill-rule: nonzero; opacity: 1;" vector-effect="non-scaling-stroke"  transform=" translate(-24.22, -30.78)" d="M 17.6917 31.0987 C 17.9863 32.3265 18.723 33.014 19.607 33.1613 C 20.0981 33.2595 20.5401 33.6033 20.7365 34.0453 L 27.1699 49.5149 C 27.4154 50.0551 27.9556 50.3988 28.5449 50.3988 L 29.3307 50.3988 C 30.1656 50.3988 30.804 49.7604 30.804 48.9256 L 30.804 12.6334 C 30.804 11.7986 30.1656 11.1602 29.3307 11.1602 L 28.4958 11.1602 C 27.9065 11.1602 27.3663 11.5039 27.1208 12.0441 L 20.6874 27.5628 C 20.4909 28.0539 20.049 28.3486 19.5579 28.4468 C 18.6739 28.6432 17.9372 29.2817 17.6426 30.5094 C 17.6426 30.7058 17.6426 30.9023 17.6917 31.0987 Z M 23.1429 30.2147 L 26.2859 22.6027 C 26.5314 21.9643 27.5136 22.1607 27.5136 22.8483 L 27.5136 38.7107 C 27.5136 39.3983 26.5314 39.5947 26.2859 38.9563 L 23.1429 31.3443 C 22.9955 31.0005 22.9955 30.6076 23.1429 30.2147 Z" stroke-linecap="round" />
</g>
</svg>